<?xml version="1.0" encoding="UTF-8"?>
<svg xmlns="http://www.w3.org/2000/svg" xmlns:xlink="http://www.w3.org/1999/xlink" width="64px" height="64px" viewBox="0 0 64 64" version="1.1">
<g id="surface1">
<path style=" stroke:none;fill-rule:nonzero;fill:rgb(67.843139%,54.509807%,22.745098%);fill-opacity:1;" d="M 24.027344 22.742188 L 12.449219 16.382812 L 18.234375 13.183594 Z M 27.453125 8.082031 L 27.453125 20.828125 L 21.675781 11.316406 Z M 23.496094 25.164062 L 29.957031 21.617188 L 29.957031 1.125 L 4.859375 14.925781 Z M 23.496094 25.164062 "/>
<path style=" stroke:none;fill-rule:nonzero;fill:rgb(67.843139%,54.509807%,22.745098%);fill-opacity:1;" d="M 8.011719 40.257812 L 8.011719 33.898438 L 19.582031 33.898438 Z M 8.011719 23.761719 L 19.570312 30.113281 L 8.011719 30.113281 Z M 21.503906 28.472656 L 2.875 18.207031 L 2.875 45.800781 L 21.503906 35.554688 Z M 21.503906 28.472656 "/>
<path style=" stroke:none;fill-rule:nonzero;fill:rgb(67.843139%,54.509807%,22.745098%);fill-opacity:1;" d="M 45.632812 50.816406 L 39.894531 41.300781 L 51.445312 47.660156 Z M 36.394531 55.902344 L 36.394531 43.132812 L 42.191406 52.683594 Z M 33.929688 42.390625 L 33.929688 62.875 L 59.023438 49.074219 L 40.386719 38.835938 Z M 33.929688 42.390625 "/>
<path style=" stroke:none;fill-rule:nonzero;fill:rgb(67.843139%,54.509807%,22.745098%);fill-opacity:1;" d="M 55.890625 30.113281 L 44.332031 30.113281 L 55.890625 23.761719 Z M 55.890625 40.257812 L 44.304688 33.898438 L 55.890625 33.898438 Z M 42.371094 28.472656 L 42.371094 35.574219 L 61 45.8125 L 61 18.207031 Z M 42.371094 28.472656 "/>
<path style=" stroke:none;fill-rule:nonzero;fill:rgb(67.843139%,54.509807%,22.745098%);fill-opacity:1;" d="M 45.632812 13.183594 L 51.417969 16.382812 L 39.839844 22.742188 Z M 36.394531 8.109375 L 42.179688 11.308594 L 36.394531 20.855469 Z M 59.023438 14.925781 L 33.917969 1.125 L 33.917969 21.617188 L 40.386719 25.164062 Z M 59.023438 14.925781 "/>
<path style=" stroke:none;fill-rule:nonzero;fill:rgb(67.843139%,54.509807%,22.745098%);fill-opacity:1;" d="M 18.234375 50.816406 L 12.457031 47.644531 L 24.027344 41.300781 Z M 27.460938 55.890625 L 21.675781 52.710938 L 27.453125 43.191406 Z M 4.859375 49.082031 L 29.945312 62.875 L 29.945312 42.390625 L 23.496094 38.835938 Z M 4.859375 49.082031 "/>
</g>
</svg>
