<?xml version="1.0" encoding="UTF-8"?>
<svg xmlns="http://www.w3.org/2000/svg" xmlns:xlink="http://www.w3.org/1999/xlink" width="192px" height="192px" viewBox="0 0 192 192" version="1.1">
<g id="surface1">
<path style=" stroke:none;fill-rule:nonzero;fill:rgb(67.843139%,54.509807%,22.745098%);fill-opacity:1;" d="M 72.078125 68.230469 L 37.347656 49.152344 L 54.699219 39.554688 Z M 82.355469 24.242188 L 82.355469 62.484375 L 65.027344 33.949219 Z M 70.492188 75.488281 L 89.867188 64.851562 L 89.867188 3.375 L 14.582031 44.78125 Z M 70.492188 75.488281 "/>
<path style=" stroke:none;fill-rule:nonzero;fill:rgb(67.843139%,54.509807%,22.745098%);fill-opacity:1;" d="M 24.039062 120.769531 L 24.039062 101.691406 L 58.742188 101.691406 Z M 24.039062 71.285156 L 58.714844 90.335938 L 24.039062 90.335938 Z M 64.507812 85.414062 L 8.625 54.621094 L 8.625 137.40625 L 64.507812 106.667969 Z M 64.507812 85.414062 "/>
<path style=" stroke:none;fill-rule:nonzero;fill:rgb(67.843139%,54.509807%,22.745098%);fill-opacity:1;" d="M 136.898438 152.445312 L 119.683594 123.90625 L 154.332031 142.984375 Z M 109.1875 167.703125 L 109.1875 129.402344 L 126.570312 158.050781 Z M 101.785156 127.175781 L 101.785156 188.625 L 177.070312 147.21875 L 121.160156 116.511719 Z M 101.785156 127.175781 "/>
<path style=" stroke:none;fill-rule:nonzero;fill:rgb(67.843139%,54.509807%,22.745098%);fill-opacity:1;" d="M 167.667969 90.335938 L 132.992188 90.335938 L 167.667969 71.285156 Z M 167.667969 120.769531 L 132.910156 101.691406 L 167.667969 101.691406 Z M 127.117188 85.414062 L 127.117188 106.722656 L 183 137.433594 L 183 54.621094 Z M 127.117188 85.414062 "/>
<path style=" stroke:none;fill-rule:nonzero;fill:rgb(67.843139%,54.509807%,22.745098%);fill-opacity:1;" d="M 136.898438 39.554688 L 154.25 49.152344 L 119.519531 68.230469 Z M 109.1875 24.324219 L 126.542969 33.921875 L 109.1875 62.566406 Z M 177.070312 44.78125 L 101.757812 3.375 L 101.757812 64.851562 L 121.160156 75.488281 Z M 177.070312 44.78125 "/>
<path style=" stroke:none;fill-rule:nonzero;fill:rgb(67.843139%,54.509807%,22.745098%);fill-opacity:1;" d="M 54.699219 152.445312 L 37.375 142.929688 L 72.078125 123.90625 Z M 82.382812 167.675781 L 65.027344 158.136719 L 82.355469 129.570312 Z M 14.582031 147.246094 L 89.839844 188.625 L 89.839844 127.175781 L 70.492188 116.511719 Z M 14.582031 147.246094 "/>
</g>
</svg>
