<?xml version="1.0" encoding="UTF-8"?>
<svg xmlns="http://www.w3.org/2000/svg" xmlns:xlink="http://www.w3.org/1999/xlink" width="128px" height="128px" viewBox="0 0 128 128" version="1.1">
<g id="surface1">
<path style=" stroke:none;fill-rule:nonzero;fill:rgb(67.843139%,54.509807%,22.745098%);fill-opacity:1;" d="M 48.050781 45.488281 L 24.898438 32.765625 L 36.464844 26.371094 Z M 54.902344 16.160156 L 54.902344 41.65625 L 43.351562 22.632812 Z M 46.996094 50.328125 L 59.914062 43.234375 L 59.914062 2.25 L 9.722656 29.851562 Z M 46.996094 50.328125 "/>
<path style=" stroke:none;fill-rule:nonzero;fill:rgb(67.843139%,54.509807%,22.745098%);fill-opacity:1;" d="M 16.023438 80.515625 L 16.023438 67.792969 L 39.160156 67.792969 Z M 16.023438 47.523438 L 39.144531 60.222656 L 16.023438 60.222656 Z M 43.007812 56.945312 L 5.75 36.414062 L 5.75 91.601562 L 43.007812 71.113281 Z M 43.007812 56.945312 "/>
<path style=" stroke:none;fill-rule:nonzero;fill:rgb(67.843139%,54.509807%,22.745098%);fill-opacity:1;" d="M 91.265625 101.628906 L 79.789062 82.605469 L 102.890625 95.324219 Z M 72.792969 111.800781 L 72.792969 86.269531 L 84.378906 105.367188 Z M 67.855469 84.785156 L 67.855469 125.75 L 118.046875 98.148438 L 80.773438 77.671875 Z M 67.855469 84.785156 "/>
<path style=" stroke:none;fill-rule:nonzero;fill:rgb(67.843139%,54.509807%,22.745098%);fill-opacity:1;" d="M 111.78125 60.222656 L 88.660156 60.222656 L 111.78125 47.523438 Z M 111.78125 80.515625 L 88.605469 67.792969 L 111.78125 67.792969 Z M 84.742188 56.945312 L 84.742188 71.148438 L 122 91.621094 L 122 36.414062 Z M 84.742188 56.945312 "/>
<path style=" stroke:none;fill-rule:nonzero;fill:rgb(67.843139%,54.509807%,22.745098%);fill-opacity:1;" d="M 91.265625 26.371094 L 102.835938 32.765625 L 79.679688 45.488281 Z M 72.792969 16.214844 L 84.359375 22.613281 L 72.792969 41.710938 Z M 118.046875 29.851562 L 67.835938 2.25 L 67.835938 43.234375 L 80.773438 50.328125 Z M 118.046875 29.851562 "/>
<path style=" stroke:none;fill-rule:nonzero;fill:rgb(67.843139%,54.509807%,22.745098%);fill-opacity:1;" d="M 36.464844 101.628906 L 24.914062 95.289062 L 48.050781 82.605469 Z M 54.921875 111.785156 L 43.351562 105.421875 L 54.902344 86.378906 Z M 9.722656 98.164062 L 59.894531 125.75 L 59.894531 84.785156 L 46.996094 77.671875 Z M 9.722656 98.164062 "/>
</g>
</svg>
